# Blender v2.76 (sub 0) OBJ File: 'WorldGen-Crystal.blend'
# www.blender.org
mtllib WorldGen-Crystal.mtl
o Stone
v -0.153516 -0.000001 0.140876
v 0.125182 0.000001 0.140876
v -0.153517 -0.000001 -0.137822
v 0.125182 0.000001 -0.137822
v -0.014168 0.084137 0.088999
v -0.051827 0.088639 0.063270
v -0.039352 0.095513 -0.032359
v 0.029972 0.091501 -0.061814
v 0.100264 0.076740 -0.027372
v 0.077722 0.110447 0.000740
v 0.058539 0.115441 0.052057
v -0.151436 0.040263 0.025020
v -0.007167 0.083307 -0.096679
v 0.093296 0.061470 0.083939
v -0.060617 -0.000001 0.164760
v 0.032282 0.000000 0.175495
v 0.162524 0.000001 0.047977
v 0.163362 0.000001 -0.044922
v 0.032282 0.000000 -0.175473
v -0.060617 -0.000000 -0.175473
v -0.212548 -0.000001 0.001527
vt 0.301431 0.405048
vt 0.366866 0.522401
vt 0.301431 0.572100
vt 0.531538 0.698569
vt 0.301431 0.698569
vt 0.542635 0.572618
vt 0.698569 0.572774
vt 0.605651 0.478146
vt 0.698569 0.463886
vt 0.474704 0.421790
vt 0.587816 0.301431
vt 0.562701 0.390146
vt 0.538757 0.437645
vt 0.566742 0.467228
vt 0.483646 0.301431
vt 0.452326 0.456931
vt 0.493346 0.530585
vt 0.559097 0.529547
vt 0.301431 0.301431
vt 0.698569 0.301431
vt 0.698569 0.698569
vn -0.598300 0.760200 0.253400
vn -0.250500 0.745200 -0.618000
vn 0.705600 0.646500 -0.290000
vn 0.183000 0.717500 0.672100
vn 0.159300 0.576100 0.801700
vn 0.754800 0.617300 0.222100
vn 0.863100 0.495400 0.098100
vn 0.779800 0.592300 0.202700
vn 0.228400 0.756300 0.613000
vn -0.503500 0.818900 0.275500
vn -0.276400 0.792700 0.543300
vn -0.439100 0.898400 0.007300
vn -0.513600 0.834500 -0.199800
vn -0.385300 0.852000 -0.354500
vn 0.326600 0.781500 -0.531600
vn 0.393600 0.794200 -0.463000
vn -0.028300 0.979400 -0.200000
vn 0.418100 0.730200 -0.540300
vn -0.051600 0.966000 -0.253200
vn -0.141000 0.988600 0.052700
vn -0.175100 0.893900 0.412700
vn -0.249700 0.950300 -0.185800
vn -0.175200 0.710500 0.681600
vn -0.082900 0.691700 0.717400
vn 0.618300 0.745600 0.248500
vn 0.773200 0.634200 0.007000
vn 0.258500 0.725600 -0.637700
vn -0.000000 0.687200 -0.726500
vn -0.482600 0.851700 -0.204400
usemtl None
s off
f 1/1/1 12/2/1 21/3/1
f 20/4/2 3/5/2 13/6/2
f 4/7/3 9/8/3 18/9/3
f 5/10/4 2/11/4 14/12/4
f 11/13/5 5/10/5 14/12/5
f 11/13/6 14/12/6 10/14/6
f 10/14/7 2/11/7 9/8/7
f 10/14/8 14/12/8 2/11/8
f 2/11/9 5/10/9 16/15/9
f 6/16/10 12/2/10 1/1/10
f 5/10/11 6/16/11 1/1/11
f 7/17/12 12/2/12 6/16/12
f 3/5/13 12/2/13 7/17/13
f 3/5/14 7/17/14 13/6/14
f 13/6/15 8/18/15 4/7/15
f 8/18/16 9/8/16 4/7/16
f 8/18/17 13/6/17 7/17/17
f 10/14/18 9/8/18 8/18/18
f 10/14/19 8/18/19 7/17/19
f 7/17/20 6/16/20 10/14/20
f 6/16/21 5/10/21 11/13/21
f 10/14/22 6/16/22 11/13/22
f 5/10/23 1/1/23 15/19/23
f 5/10/24 15/19/24 16/15/24
f 9/8/25 2/11/25 17/20/25
f 9/8/26 17/20/26 18/9/26
f 4/7/27 19/21/27 13/6/27
f 19/21/28 20/4/28 13/6/28
f 12/2/29 3/5/29 21/3/29
o Crystals
v -0.092904 0.025567 0.179326
v -0.099523 0.115161 0.212132
v -0.110780 0.064044 0.132086
v -0.079093 0.007043 0.152668
v -0.094435 0.039979 0.112596
v -0.092998 0.036540 0.118346
v -0.035320 0.052321 0.179326
v -0.053197 0.090797 0.132086
v -0.051239 0.016986 0.149465
v -0.028662 0.023784 0.145519
v -0.043899 0.057616 0.109000
v -0.074922 0.047454 0.111617
v -0.037056 0.042678 0.126330
v -0.040388 0.152418 -0.162089
v -0.000001 0.207767 -0.262629
v -0.040388 0.099892 -0.223452
v -0.026787 0.067735 -0.107505
v -0.026409 0.031039 -0.146116
v -0.026835 0.052652 -0.125673
v 0.040386 0.152418 -0.162089
v 0.040386 0.099893 -0.223452
v -0.015583 0.070189 -0.109086
v -0.000955 0.070189 -0.109086
v 0.021947 0.064981 -0.105730
v 0.026148 0.063761 -0.104943
v 0.026099 0.029513 -0.144401
v 0.017584 0.031039 -0.146116
v 0.026184 0.062314 -0.107047
v -0.176533 0.207738 0.003752
v -0.130064 0.340461 -0.067451
v -0.143693 0.196798 -0.130855
v -0.095893 0.067598 0.002038
v -0.078138 0.061829 -0.071157
v -0.078916 0.062413 -0.068908
v -0.095003 0.068081 -0.003870
v -0.047242 0.250309 0.031836
v -0.014402 0.239370 -0.102771
v -0.045390 0.092186 0.013926
v -0.026203 0.094724 0.017658
v -0.008097 0.091224 -0.057782
v -0.024300 0.089805 -0.062439
v -0.016408 0.098440 -0.025872
v -0.011602 0.093907 -0.044150
v 0.149486 0.220432 0.008381
v 0.236773 0.303766 -0.066819
v 0.121412 0.221985 -0.081735
v 0.088690 0.090499 0.004973
v 0.068353 0.081688 -0.046015
v 0.070232 0.083046 -0.042087
v 0.086728 0.096980 -0.010492
v 0.226172 0.171253 -0.016356
v 0.198099 0.172806 -0.106472
v 0.104010 0.065203 -0.002078
v 0.117462 0.055542 -0.006558
v 0.123359 0.048378 -0.008921
v 0.109988 0.051889 -0.059115
v 0.107264 0.055181 -0.058401
v 0.119663 0.053148 -0.032768
v 0.149285 0.353369 0.242697
v 0.189448 0.560850 0.200636
v 0.042052 0.407726 0.165167
v 0.054683 0.066671 0.088899
v 0.016612 0.101137 0.065244
v 0.022782 0.100046 0.070225
v 0.050079 0.070586 0.085974
v 0.236060 0.362914 0.129369
v 0.128828 0.417271 0.051839
v 0.058539 0.068801 0.085575
v 0.079178 0.083392 0.070989
v 0.087754 0.078898 0.054332
v 0.090167 0.077404 0.049414
v 0.051531 0.107476 0.020735
v 0.025977 0.107534 0.055365
v 0.086246 0.083640 0.046278
v 0.066547 0.113356 0.030634
vt 0.484773 0.286201
vt 0.483174 0.390969
vt 0.377159 0.389748
vt 0.000096 0.373553
vt 0.010032 0.272300
vt 0.582418 0.392347
vt 0.482494 0.493820
vt 0.504296 0.000095
vt 0.901796 0.056694
vt 0.513503 0.896199
vt 0.000095 0.730162
vt 0.999905 0.408124
vt 0.883948 0.836340
vt 0.053843 0.332747
vt 0.469146 0.383540
vt 0.422985 0.782903
vt 0.595720 0.150021
vt 0.946759 0.271777
vt 0.517736 0.000097
vt 0.851060 0.428294
vt 0.787206 0.740767
vt 0.732752 0.929681
vt 0.000097 0.245903
vt 0.030929 0.150021
vt 0.280845 0.964049
vt 0.245398 0.980629
vt 0.327502 0.999903
vt 0.048159 0.435206
vt 0.480962 0.453102
vt 0.452958 0.887412
vt 0.457804 0.311669
vt 0.470921 0.311700
vt 0.505041 0.000098
vt 0.934204 0.476356
vt 0.953382 0.431881
vt 0.742593 0.999609
vt 0.000098 0.556288
vt 0.000098 0.398125
vt 0.001618 0.687101
vt 0.962547 0.538377
vt 0.440021 0.533901
vt 0.436049 0.000098
vt 0.516078 0.971319
vt 0.060255 0.701847
vt 0.432465 0.999902
vt 0.005771 0.537463
vt 0.000098 0.520696
vt 0.401309 0.275441
vt 0.666609 0.518742
vt 0.662720 0.541929
vt 0.462915 0.265390
vt 0.666609 0.290097
vt 0.328641 0.999903
vt 0.433766 0.524058
vt 0.939418 0.632277
vt 0.216156 0.484604
vt 0.224328 0.460238
vt 0.000097 0.436471
vt 0.538420 0.000097
vt 0.520797 0.432190
vt 0.526336 0.482685
vt 0.394146 0.639616
vt 0.220170 0.539537
vt 0.519827 0.510633
vt 0.451110 0.622296
vt 0.851048 0.609997
vt 0.954382 0.386411
vt 0.540948 0.999902
vt 0.023574 0.874455
vt 0.553826 0.975606
vt 0.236208 0.326055
vt 0.391580 0.384023
vt 0.408198 0.384023
vt 0.426973 0.389319
vt 0.528080 0.495120
vn -0.959200 -0.157000 0.235100
vn -0.856300 -0.508600 -0.090200
vn 0.153200 -0.329800 0.931500
vn -0.373800 0.804700 -0.461300
vn 0.321300 -0.691500 0.647000
vn -0.236600 0.509300 -0.827400
vn 0.738600 0.631800 0.235100
vn 0.940900 0.326400 -0.090200
vn -0.936000 0.267300 -0.228800
vn -0.990800 -0.102600 0.087800
vn -0.000000 0.876000 0.482300
vn 0.000000 -0.341400 -0.939900
vn -0.000000 0.541800 0.840500
vn 0.000000 -0.746900 -0.665000
vn 0.936000 0.267300 -0.228800
vn 0.990800 -0.102500 0.087800
vn -0.326600 -0.781500 0.531600
vn -0.948200 0.199200 -0.247500
vn -0.855200 -0.490000 -0.168800
vn -0.343700 0.534500 0.772100
vn 0.067900 0.397400 -0.915100
vn -0.175300 -0.112800 0.978000
vn 0.287700 -0.267100 -0.919700
vn 0.672400 0.732800 0.104500
vn 0.967600 0.110200 0.227100
vn -0.583900 0.788000 0.195500
vn -0.872600 0.401000 0.278800
vn 0.454900 0.284900 0.843700
vn -0.101800 0.315700 -0.943400
vn 0.226900 -0.131500 0.965000
vn -0.362400 -0.098900 -0.926800
vn 0.936900 -0.187300 -0.295100
vn 0.737200 -0.631400 -0.240500
vn -0.474600 0.262200 0.840200
vn -0.636800 -0.190700 0.747100
vn 0.794900 -0.031000 0.606000
vn -0.608400 0.680300 -0.408600
vn 0.707000 -0.501000 0.499100
vn -0.778500 0.252000 -0.574900
vn 0.661000 0.387100 -0.642800
vn 0.565300 -0.058400 -0.822800
usemtl Material.001
s off
f 22/22/30 23/23/30 24/24/30
f 24/24/31 26/25/31 27/26/31
f 23/23/32 22/22/32 28/27/32
f 23/23/33 29/28/33 24/24/33
f 25/29/34 30/30/34 22/22/34
f 29/28/35 32/31/35 33/32/35
f 28/27/36 29/28/36 23/23/36
f 31/33/37 34/34/37 28/27/37
f 35/35/38 36/36/38 37/37/38
f 37/37/39 39/38/39 40/39/39
f 36/36/40 35/35/40 41/40/40
f 36/36/41 42/41/41 37/37/41
f 43/42/42 44/43/42 35/35/42
f 42/41/43 47/44/43 48/45/43
f 41/40/44 42/41/44 36/36/44
f 46/46/45 49/47/45 41/40/45
f 49/47/46 46/46/46 45/48/46
f 50/49/47 51/50/47 52/51/47
f 52/51/48 54/52/48 55/53/48
f 51/50/49 50/49/49 57/54/49
f 51/50/50 58/55/50 52/51/50
f 53/56/51 59/57/51 50/49/51
f 58/55/52 61/58/52 62/59/52
f 57/54/53 58/55/53 51/50/53
f 64/60/54 61/58/54 58/55/54
f 65/61/55 66/62/55 67/63/55
f 67/63/56 70/64/56 71/65/56
f 66/62/57 65/61/57 72/66/57
f 66/62/58 73/67/58 67/63/58
f 68/68/59 75/69/59 72/66/59
f 73/67/60 77/70/60 78/71/60
f 72/66/61 73/67/61 66/62/61
f 76/72/62 79/73/62 72/66/62
f 80/74/63 81/75/63 82/76/63
f 82/76/64 84/77/64 85/78/64
f 81/75/65 80/74/65 87/79/65
f 81/75/66 88/80/66 82/76/66
f 90/81/67 91/82/67 87/79/67
f 88/80/68 93/83/68 94/84/68
f 87/79/69 88/80/69 81/75/69
f 95/85/70 96/86/70 87/79/70
f 27/26/31 25/29/31 22/22/31
f 22/22/31 24/24/31 27/26/31
f 28/27/34 22/22/34 30/30/34
f 30/30/34 31/33/34 28/27/34
f 33/32/35 26/25/35 24/24/35
f 24/24/35 29/28/35 33/32/35
f 29/28/37 28/27/37 34/34/37
f 34/34/37 32/31/37 29/28/37
f 40/39/39 38/87/39 35/35/39
f 35/35/39 37/37/39 40/39/39
f 41/40/42 35/35/42 44/43/42
f 45/48/42 46/46/42 41/40/42
f 35/35/42 38/87/42 43/42/42
f 44/43/42 45/48/42 41/40/42
f 48/45/43 39/38/43 37/37/43
f 37/37/43 42/41/43 48/45/43
f 42/41/45 41/40/45 49/47/45
f 49/47/45 47/44/45 42/41/45
f 56/88/48 53/56/48 50/49/48
f 50/49/48 52/51/48 56/88/48
f 55/53/48 56/88/48 52/51/48
f 57/54/51 50/49/51 59/57/51
f 59/57/51 60/89/51 57/54/51
f 62/59/52 54/52/52 52/51/52
f 52/51/52 58/55/52 62/59/52
f 58/55/54 57/54/54 63/90/54
f 63/90/54 64/60/54 58/55/54
f 57/54/54 60/89/54 63/90/54
f 71/65/56 68/68/56 65/61/56
f 65/61/56 67/63/56 71/65/56
f 69/91/56 70/64/56 67/63/56
f 72/66/59 65/61/59 68/68/59
f 68/68/59 74/92/59 75/69/59
f 75/69/59 76/72/59 72/66/59
f 78/71/60 69/91/60 73/67/60
f 67/63/60 73/67/60 69/91/60
f 73/67/62 72/66/62 79/73/62
f 79/73/62 77/70/62 73/67/62
f 86/93/64 83/94/64 80/74/64
f 80/74/64 82/76/64 85/78/64
f 85/78/64 86/93/64 80/74/64
f 87/79/67 80/74/67 90/81/67
f 83/94/67 89/95/67 90/81/67
f 91/82/67 92/96/67 87/79/67
f 80/74/67 83/94/67 90/81/67
f 94/84/68 84/77/68 82/76/68
f 82/76/68 88/80/68 94/84/68
f 88/80/70 87/79/70 96/86/70
f 96/86/70 93/83/70 88/80/70
f 87/79/70 92/96/70 95/85/70
